<?xml version="1.0" encoding="UTF-8" standalone="no"?>
<!-- Created with Inkscape (http://www.inkscape.org/) -->

<svg
   xmlns:dc="http://purl.org/dc/elements/1.1/"
   xmlns:cc="http://creativecommons.org/ns#"
   xmlns:rdf="http://www.w3.org/1999/02/22-rdf-syntax-ns#"
   xmlns:svg="http://www.w3.org/2000/svg"
   xmlns="http://www.w3.org/2000/svg"
   xmlns:sodipodi="http://sodipodi.sourceforge.net/DTD/sodipodi-0.dtd"
   xmlns:inkscape="http://www.inkscape.org/namespaces/inkscape"
   id="svg3508"
   version="1.1"
   inkscape:version="0.91 r13725"
   width="779.40002"
   height="56.700001"
   viewBox="0 0 779.40002 56.700001"
   sodipodi:docname="digitalbrewLogo1.jpg.svg">
  <metadata
     id="metadata3514">
    <rdf:RDF>
      <cc:Work
         rdf:about="">
        <dc:format>image/svg+xml</dc:format>
        <dc:type
           rdf:resource="http://purl.org/dc/dcmitype/StillImage" />
        <dc:title></dc:title>
      </cc:Work>
    </rdf:RDF>
  </metadata>
  <defs
     id="defs3512" />
  <sodipodi:namedview
     pagecolor="#ffffff"
     bordercolor="#666666"
     borderopacity="1"
     objecttolerance="10"
     gridtolerance="10"
     guidetolerance="10"
     inkscape:pageopacity="0"
     inkscape:pageshadow="2"
     inkscape:window-width="1440"
     inkscape:window-height="790"
     id="namedview3510"
     showgrid="false"
     inkscape:zoom="1.5909674"
     inkscape:cx="402.51809"
     inkscape:cy="18.543044"
     inkscape:window-x="0"
     inkscape:window-y="1"
     inkscape:window-maximized="1"
     inkscape:current-layer="svg3508" />
  <path
     style="fill:#000000"
     d="m 7.2251776e-8,28.349999 0,-28.349998927448826 20.250000927748224,0 20.25,0 0,3.569267027448826 0,3.569267 4.007484,0.214638 4.007484,0.214639 0.192516,2.7121819 c 0.105885,1.4917 0.192516,3.366443 0.192516,4.166095 l 0,1.453912 3.9,0 3.9,0 0,12.299999 0,12.3 -3.9,0 -3.9,0 0,3.86927 0,3.86926 -4.013916,0.21499 -4.013919,0.21498 -0.186081,1.35762 c -0.102348,0.74669 -0.186084,2.13191 -0.186084,3.07825 0,0.94635 -0.08437,2.14251 -0.1875,2.65813 l -0.1875,0.9375 -20.0625,0 -20.062500927748228,0 0,-28.35 z M 30.600001,43.649999 l 0,-4.35 3.9,0 3.9,0 0,-11.55 0,-11.549999 -3.9,0 -3.9,0 0,-3.9 0,-3.8999999 -6.9,0 -6.900001,0 0,19.7999989 0,19.8 6.900001,0 6.9,0 0,-4.35 z M 73.0199,56.407259 c -0.731253,-0.29559 -1.013037,-1.92565 -1.017291,-5.88483 l -0.0027,-2.42756 5.625001,-0.19659 c 3.09375,-0.10812 6.73875,-0.19696 8.1,-0.19743 l 2.47509,-8.5e-4 3e-4,-8.175 C 88.20054,35.028749 88.29,26.186249 88.39902,19.875 l 0.19842,-11.4749999 -8.29872,0 -8.298718,0 0,-4.2 0,-4.200000027448822 25.199998,0 25.2,0 L 122.4,4.0150111 c 0,4.772188 0.47675,4.374239 -5.25,4.382257 -2.145,0.003 -5.41875,0.09297 -7.275,0.199933 l -3.375,0.194472 0,19.4541659 0,19.45416 2.325,9e-4 c 1.27875,6e-4 4.85625,0.0893 7.95,0.19743 l 5.625,0.19659 0,4.30257 0,4.30256 -24.375,-0.019 c -13.40625,-0.0105 -24.65854,-0.13363 -25.0051,-0.27372 z M 147,54.945269 c 0,-0.96511 -0.086,-2.77232 -0.19114,-4.01603 l -0.19115,-2.26128 -4.00885,-0.21471 -4.00886,-0.21472 0,-3.86926 0,-3.86927 -3.9,0 -3.9,0 0,-12.3 0,-12.299999 3.9,0 3.9,0 0,-4.35 0,-4.3499999 4.2,0 4.2,0 0,-3.6 0,-3.600000027448821 20.85,0 20.85,0 0,4.200000027448821 0,4.2 -15.9,0 -15.9,0 0,3.8999999 0,3.9 -4.05,0 -4.05,0 0,11.549999 0,11.55 4.05,0 4.05,0 0,4.35 0,4.35 6.75,0 6.75,0 0,-7.65 0,-7.65 -3.9,0 -3.9,0 0,-4.5 0,-4.5 13.05,0 13.05,0 0,16.5 0,16.5 -20.85,0 -20.85,0 0,-1.75473 z m 58.02051,1.46222 c -0.70603,-0.28543 -1.0205,-2.18184 -1.0205,-6.15406 l 0,-2.15856 5.625,-0.19659 c 3.09375,-0.10812 6.73875,-0.19696 8.1,-0.19743 l 2.475,-8.5e-4 0,-6.55077 c 0,-3.60293 0.0895,-12.44543 0.19887,-19.65001 l 0.19887,-13.0992189 -8.29887,0 -8.29887,0 0,-4.2 0,-4.200000027448826 25.2,0 25.2,0 0,4.017903027448826 c 0,3.387056 -0.0745,4.046495 -0.47454,4.2 -0.26099,0.100154 -2.31974,0.182711 -4.575,0.183461 -2.25525,7.5e-4 -5.61921,0.08888 -7.47546,0.195837 l -3.375,0.194472 0,19.4541659 0,19.45416 2.325,9e-4 c 1.27875,6e-4 4.85625,0.0893 7.95,0.19743 l 5.625,0.19659 0,4.30257 0,4.30256 -24.375,-0.019 c -13.40625,-0.0105 -24.65828,-0.13353 -25.0045,-0.2735 z m 81.1795,-23.85749 0,-24.1499989 -8.25,0 -8.25,0 0,-4.2 0,-4.200000027448822 25.2,0 25.2,0 0,4.015011027448822 c 0,4.778967 0.49863,4.374304 -5.4,4.382257 -2.2275,0.003 -5.56875,0.09297 -7.425,0.199933 l -3.375,0.194472 0,10.6791639 c -2.1e-4,5.873542 -0.0897,16.652912 -0.1989,23.954162 l -0.19851,13.275 -8.65112,0 -8.65111,0 0,-24.15 z m 41.4,3.75 0,-20.399999 3.9,0 3.9,0 0.003,-1.725 c 0,-0.94875 0.0873,-2.823476 0.19185,-4.166058 l 0.19005,-2.4410589 4.00815,-0.214675 4.00695,-0.214674 0,-3.569267 0,-3.569267027448823 12.75,0 12.75,0 0,3.569267027448823 0,3.569267 4.01226,0.214894 4.01226,0.214894 0.18513,1.540839 c 0.10182,0.8474615 0.1863,2.3002139 0.18774,3.2283389 0,0.928125 0.087,2.109375 0.19011,2.625 l 0.1875,0.9375 3.7125,0 3.7125,0 0,20.399999 0,20.4 -8.6823,0 c -5.37552,0 -8.75184,-0.11253 -8.86488,-0.29545 -0.10044,-0.1625 -0.25041,-3.36875 -0.33327,-7.125 -0.0829,-3.75625 -0.21729,-7.2683 -0.29871,-7.80455 l -0.14802,-0.975 -10.59117,0 -10.59117,0 -0.19368,2.925 c -0.10653,1.60875 -0.19587,4.7475 -0.19854,6.975 -0.003,2.2275 -0.0885,4.55625 -0.1908,5.175 l -0.18597,1.125 -8.81073,0 -8.81076,0 0,-20.4 z m 39.9,-12.45 0,-7.649999 -3.9,0 -3.9,0 0,-3.9 0,-3.8999999 -3,0 -3,0 0,3.8999999 0,3.9 -3.9,0 -3.9,0 0,7.649999 0,7.65 10.8,0 10.8,0 0,-7.65 z m 33.6,4.5 0,-28.349998927448822 9,0 9,0 0,23.999998927448821 0,24 16.05,0 16.05,0 0,4.35 0,4.35 -25.05,0 -25.05,0 0,-28.35 z m 124.2,0 0,-28.349998927448822 25.05,0 25.05,0 0,3.600000027448822 0,3.6 3.9,0 3.9,0 0,8.8499999 0,8.849999 -3.9,0 -3.9,0 0,3.3 0,3.3 3.9,0 3.9,0 0,8.4 0,8.4 -3.85365,0 -3.85368,0 -0.18906,3.9528 c -0.12906,2.6984 -0.31038,4.0298 -0.57135,4.19541 -0.21024,0.13343 -11.41851,0.24467 -24.90726,0.2472 l -24.525,0.005 0,-28.35 z m 39.6,12 0,-7.65 -10.8,0 -10.8,0 0,7.65 0,7.65 10.8,0 10.8,0 0,-7.65 z m 0,-24.299999 0,-7.6499999 -10.8,0 -10.8,0 0,7.6499999 0,7.649999 10.8,0 10.8,0 0,-7.649999 z m 25.80001,12.299999 0,-28.349998927448819 25.2,0 25.2,0 0,3.600000027448819 0,3.6 3.9,0 3.9,0 0,12.7499999 0,12.749999 -8.25,0 -8.25,0 0,3.27113 0,3.27113 3.225,0.19265 c 1.77375,0.10596 3.63,0.2202 4.125,0.25387 l 0.9,0.0612 0.26232,4.125 0.26232,4.125 3.86268,0 3.86268,0 0,4.35 0,4.35 -13.05,0 -13.05,0 0,-4.2 0,-4.2 -3.9,0 -3.9,0 0,-3.9 0,-3.9 -2.95245,0 -2.95245,0 -0.20631,7.84283 c -0.11349,4.31355 -0.27783,7.95855 -0.36525,8.1 -0.0874,0.14144 -4.13349,0.25717 -8.99124,0.25717 l -8.8323,0 0,-28.35 z m 32.1,-0.75 0,-3.9 3.9,0 3.9,0 0,-7.649999 0,-7.6499999 -10.8,0 -10.8,0 0,11.5499999 0,11.549999 6.9,0 6.9,0 0,-3.9 z m 33.6,0.75 0,-28.349998927448819 29.1,0 29.1,0 0,4.200000027448819 0,4.2 -19.95,0 -19.95,0 0,7.6499999 0,7.649999 16.05,0 16.05,0 0,4.5 0,4.5 -16.05,0 -16.05,0 0,7.65 0,7.65 19.95,0 19.95,0 0,4.35 0,4.35 -29.1,0 -29.1,0 0,-28.35 z m 65.7,0 0,-28.349998927448819 9.15,0 9.15,0 L 740.40002,11.85 l 0,11.849999 3,0 3,0 0,-3.899999 0,-3.9 4.8,0 4.8,0 0,3.9 0,3.899999 3,0 3,0 0,-11.849999 0,-11.849999927448818 8.7,0 8.7,0 0,28.349998927448819 0,28.35 -8.3823,0 c -4.91835,0 -8.45445,-0.11674 -8.55687,-0.2825 -0.096,-0.15537 -0.24618,-1.60662 -0.33366,-3.225 -0.0875,-1.61837 -0.22551,-3.38125 -0.30672,-3.9175 l -0.14763,-0.975 -3.73641,0 -3.73641,0 0,-3.9 0,-3.9 -3,0 -3,0 0,3.9 0,3.9 -3.85725,0 -3.85728,0 -0.19272,1.84401 c -0.10602,1.0142 -0.19275,2.69066 -0.19275,3.72546 0,3.09108 0.84522,2.83053 -9.1821,2.83053 l -8.8179,0 0,-28.35 z m -254.70001,-0.15 0,-4.5 25.2,0 25.2,0 0,4.5 0,4.5 -25.2,0 -25.2,0 0,-4.5 z"
     id="path3518"
     inkscape:connector-curvature="0" />
</svg>
