<?xml version="1.0" encoding="UTF-8" standalone="no"?>
<!-- Created with Inkscape (http://www.inkscape.org/) -->

<svg
   xmlns:dc="http://purl.org/dc/elements/1.1/"
   xmlns:cc="http://creativecommons.org/ns#"
   xmlns:rdf="http://www.w3.org/1999/02/22-rdf-syntax-ns#"
   xmlns:svg="http://www.w3.org/2000/svg"
   xmlns="http://www.w3.org/2000/svg"
   xmlns:sodipodi="http://sodipodi.sourceforge.net/DTD/sodipodi-0.dtd"
   xmlns:inkscape="http://www.inkscape.org/namespaces/inkscape"
   id="svg3390"
   version="1.1"
   inkscape:version="0.91 r13725"
   width="630.625"
   height="53.125"
   viewBox="0 0 630.625 53.125"
   sodipodi:docname="digitalbrewLogo.jpg.svg">
  <metadata
     id="metadata3396">
    <rdf:RDF>
      <cc:Work
         rdf:about="">
        <dc:format>image/svg+xml</dc:format>
        <dc:type
           rdf:resource="http://purl.org/dc/dcmitype/StillImage" />
        <dc:title></dc:title>
      </cc:Work>
    </rdf:RDF>
  </metadata>
  <defs
     id="defs3394" />
  <sodipodi:namedview
     pagecolor="#ffffff"
     bordercolor="#666666"
     borderopacity="1"
     objecttolerance="10"
     gridtolerance="10"
     guidetolerance="10"
     inkscape:pageopacity="0"
     inkscape:pageshadow="2"
     inkscape:window-width="1440"
     inkscape:window-height="790"
     id="namedview3392"
     showgrid="false"
     inkscape:zoom="2.0646184"
     inkscape:cx="315.3125"
     inkscape:cy="26.5625"
     inkscape:window-x="0"
     inkscape:window-y="1"
     inkscape:window-maximized="1"
     inkscape:current-layer="svg3390" />
  <path
     style="fill:#000000"
     d="m 2.640649,25.999904 0,-22.8124998 16.5625,0 16.5625,0 0,3.092338 0,3.092337 3.28125,0.188912 3.28125,0.188913 0.188912,3.2812498 0.188912,3.28125 3.092338,0 3.092338,0 0,9.6875 0,9.6875 -3.125,0 -3.125,0 0,3.092337 0,3.092339 -3.28125,0.188911 -3.28125,0.188913 -0.188913,3.281249 -0.188911,3.28125 -16.529839,0 -16.529837,0 0,-22.812499 z m 25.625,12.5 0,-3.4375 3.125,0 3.125,0 0,-9.375 0,-9.375 -3.125,0 -3.125,0 0,-3.125 0,-3.125 -5.625,0 -5.625,0 0,15.9375 0,15.9375 5.625,0 5.625,0 0,-3.4375 z m 33.541667,9.895829 c -0.229167,-0.22916 -0.416667,-1.7662 -0.416667,-3.41563 l 0,-2.99897 6.40625,-0.178115 6.40625,-0.178114 0.166981,-15.78125 0.166981,-15.78125 -6.573231,0 -6.573231,0 0,-3.4374998 0,-3.4375 20,0 20.000001,0 0,3.415635 0,3.4156358 -6.406255,0.178114 -6.406246,0.178115 0,15.625 0,15.625 6.406246,0.178114 6.406255,0.178115 0,3.41563 0,3.41564 -19.583332,0 c -10.770838,0 -19.770838,-0.1875 -20.000002,-0.41667 z m 59.459744,-2.86458 -0.18891,-3.281249 -3.28125,-0.188913 -3.28125,-0.188911 0,-3.092339 0,-3.092337 -3.125,0 -3.125,0 0,-9.6875 0,-9.6875 3.125,0 3.125,0 0,-3.4375 0,-3.4374998 3.4375,0 3.4375,0 0,-3.125 0,-3.125 16.5625,0 16.5625,0 0,3.4375 0,3.4374998 -12.8125,0 -12.8125,0 0,3.125 0,3.125 -3.125,0 -3.125,0 0,9.375 0,9.375 3.125,0 3.125,0 0,3.4375 0,3.4375 5.625,0 5.625,0 0,-6.25 0,-6.25 -3.125,0 -3.125,0 0,-3.4375 0,-3.4375 10.3125,0 10.3125,0 0,13.125 0,13.124999 -16.52984,0 -16.52984,0 -0.18891,-3.28125 z m 46.16526,2.86458 c -0.22917,-0.22916 -0.41667,-1.7662 -0.41667,-3.41563 l 0,-2.99897 6.40625,-0.178115 6.40625,-0.178114 0.16698,-15.78125 0.16698,-15.78125 -6.57323,0 -6.57323,0 0,-3.4374998 0,-3.4375 20,0 20,0 0,3.415635 0,3.4156358 -6.40625,0.178114 -6.40625,0.178115 0,15.625 0,15.625 6.40625,0.178114 6.40625,0.178115 0,3.41563 0,3.41564 -19.58333,0 c -10.77084,0 -19.77084,-0.1875 -20,-0.41667 z m 65.20833,-18.958329 0,-19.375 -6.5625,0 -6.5625,0 0,-3.4374998 0,-3.4375 20,0 20,0 0,3.415635 0,3.4156358 -6.40625,0.178114 -6.40625,0.178115 -0.16528,19.21875 -0.16528,19.218749 -6.86597,0 -6.86597,0 0,-19.374999 z m 33.125,3.145469 0,-16.270469 3.09234,0 3.09234,0 0.18891,-3.28125 0.18891,-3.2812498 3.28125,-0.188913 3.28125,-0.188912 0,-3.092337 0,-3.092338 10,0 10,0 0,3.092338 0,3.092337 3.28125,0.188912 3.28125,0.188913 0.18891,3.2812498 0.18891,3.28125 3.09234,0 3.09234,0 0,16.270469 0,16.27047 -7.03125,-0.17672 -7.03125,-0.17672 -0.17811,-6.406249 -0.17812,-6.40625 -8.70627,0 -8.70627,0 -0.17812,6.40625 -0.17811,6.406249 -7.03125,0.17672 -7.03125,0.17672 0,-16.27047 z m 31.875,-10.020469 0,-6.25 -3.125,0 -3.125,0 0,-3.125 0,-3.125 -2.5,0 -2.5,0 0,3.125 0,3.125 -3.125,0 -3.125,0 0,6.25 0,6.25 8.75,0 8.75,0 0,-6.25 z m 26.875,3.4375 0,-22.8124998 7.1875,0 7.1875,0 0,19.3749998 0,19.375 12.8125,0 12.8125,0 0,3.437499 0,3.4375 -20,0 -20,0 0,-22.812499 z m 99.375,0.0088 0,-22.8212788 20,0 20,0 0,3.125 0,3.125 3.125,0 3.125,0 0,6.8749998 0,6.875 -3.125,0 -3.125,0 0,2.8125 0,2.8125 3.125,0 3.125,0 0,6.5625 0,6.5625 -3.09234,0 -3.09233,0 -0.18892,3.281248 -0.18891,3.28125 -19.84375,0.16503 -19.84375,0.16503 0,-22.821279 z m 31.875,9.6787 0,-6.25 -8.75,0 -8.75,0 0,6.25 0,6.25 8.75,0 8.75,0 0,-6.25 z m 0,-19.375 0,-6.25 -8.75,0 -8.75,0 0,6.25 0,6.25 8.75,0 8.75,0 0,-6.25 z m 20.625,9.707969 0,-22.8329688 20,0 20,0 0,3.125 0,3.125 3.125,0 3.125,0 0,9.9999998 0,10 -6.5625,0 -6.5625,0 0,2.779837 0,2.779839 3.28125,0.188911 3.28125,0.188913 0.18891,3.28125 0.18892,3.28125 3.09233,0 3.09234,0 0,3.437499 0,3.4375 -10.3125,0 -10.3125,0 0,-3.4375 0,-3.437499 -3.125,0 -3.125,0 0,-3.125 0,-3.125 -2.47814,0 -2.47813,0 -0.17812,6.40625 -0.17811,6.406249 -7.03125,0.17672 -7.03125,0.17672 0,-22.83297 z m 25.625,-0.332969 0,-3.125 3.125,0 3.125,0 0,-6.25 0,-6.25 -8.75,0 -8.75,0 0,9.375 0,9.375 5.625,0 5.625,0 0,-3.125 z m 26.875,0.3125 0,-22.8124998 23.125,0 23.125,0 0,3.4375 0,3.4374998 -15.9375,0 -15.9375,0 0,6.25 0,6.25 12.8125,0 12.8125,0 0,3.4375 0,3.4375 -12.8125,0 -12.8125,0 0,6.25 0,6.25 15.9375,0 15.9375,0 0,3.437499 0,3.4375 -23.125,0 -23.125,0 0,-22.812499 z m 52.5,0.02047 0,-22.8329688 7.1875,0 7.1875,0 0,9.6874998 0,9.6875 2.5,0 2.5,0 0,-3.125 0,-3.125 3.75,0 3.75,0 0,3.125 0,3.125 2.5,0 2.5,0 0,-9.6875 0,-9.6874998 7.1875,0 7.1875,0 0,22.8329688 0,22.832969 -7.03125,-0.17672 -7.03125,-0.17672 -0.18891,-3.28125 -0.18892,-3.281249 -3.09233,0 -3.09234,0 0,-3.125 0,-3.125 -2.5,0 -2.5,0 0,3.125 0,3.125 -3.09234,0 -3.09233,0 -0.18892,3.281249 -0.18891,3.28125 -7.03125,0.17672 -7.03125,0.17672 0,-22.83297 z m -203.75,-0.02047 0,-3.4375 20,0 20,0 0,3.4375 0,3.4375 -20,0 -20,0 0,-3.4375 z"
     id="path3400"
     inkscape:connector-curvature="0" />
</svg>
